<svg xmlns="http://www.w3.org/2000/svg" width="74" height="86" viewBox="0 0 74 86">
    <g fill="#D32B53" fill-rule="evenodd">
        <path d="M21.994 69.199h.051V35.802h6.96l.003-8.878c.394.21.815.466 1.266.786 1.42 1.018 3.13 2.686 4.828 5.489.472.776.94 1.641 1.402 2.603a38.29 38.29 0 0 1 1.178 2.726c.142.37.285.75.427 1.14 0 .002.004.006.004.01.098.272.238.518.4.741a3.054 3.054 0 0 0 3.46 1.069 3.013 3.013 0 0 0 1.853-1.81 2.91 2.91 0 0 0 .004-1.978c-.14-.393-.286-.776-.428-1.156a43.472 43.472 0 0 0-1.443-3.346c-2.59-5.362-5.639-8.62-8.443-10.528-2.892-1.978-5.421-2.454-6.636-2.557a2.916 2.916 0 0 0-.805-.113l-14.648.003c-.245 0-.482.034-.71.09a3.048 3.048 0 0 0-.784.12c-.248.08-2.556.752-5.004 2.82a13.811 13.811 0 0 0-3.395 4.277C.597 29.141 0 31.402 0 34.005c.01 4.69 1.854 10.39 6.566 17.54a3.012 3.012 0 0 0 1.928 1.292v28.566c0 2.54 2.098 4.597 4.688 4.597 2.587 0 4.688-2.057 4.688-4.597v-30.22h1.81v30.13l2.196-11.505.118-.61zM6.07 34.005c.003-1.738.376-3.016.896-4.048a7.67 7.67 0 0 1 1.53-2.057v14.917c-1.819-3.762-2.433-6.665-2.426-8.812zM27.764 6.185c1.125 4.304-1.883 8.605-6.725 9.604-4.838 1.003-9.676-1.67-10.803-5.975C9.11 5.511 12.119 1.213 16.96.21c4.838-1.002 9.676 1.675 10.803 5.975"/>
        <path d="M43.214 37.98c.017.393-.03.779-.13 1.148h23.922v25.738l-38.96.003h-2.87V39.132H36.01A41.757 41.757 0 0 0 34.767 36H22v32h48V36H42.682c.108.3.22.599.325.908.125.353.19.716.207 1.072zM29.011 70h-6.196l-2.449 12.17L20 84h54l-2.819-14h-42.17zm13.79 12.551l.1-3.266h8.191l.102 3.266H42.8zm-13.79-4.614h-4.11l1.06-6.148h42.072l1.059 6.148h-40.08z"/>
        <path d="M30 56h2v-8h-2zM46 56h2v-8h-2zM62 56h2v-8h-2zM34 52a4 4 0 1 0 8 0 4 4 0 0 0-8 0zm4.001-2.666a2.667 2.667 0 0 1 2.668 2.669 2.667 2.667 0 1 1-5.335 0A2.667 2.667 0 0 1 38 49.334zM58 52a4 4 0 1 0-8 0 4 4 0 0 0 8 0zm-6.666 0a2.667 2.667 0 1 1 5.335 0 2.667 2.667 0 1 1-5.335 0z"/>
    </g>
</svg>
