<svg height="30" viewBox="0 0 64 30" width="64" xmlns="http://www.w3.org/2000/svg"><path d="m16.001 29.199c-.449 0-.903-.2-1.242-.5l-14.202-12.598a1.443 1.443 0 0 1 0-2.2l14.207-12.601c.678-.602 1.805-.602 2.48 0a1.443 1.443 0 0 1 0 2.199l-12.965 11.5 12.964 11.5a1.443 1.443 0 0 1 0 2.2c-.339.402-.788.5-1.242.5zm31.998 0c-.45 0-.903-.2-1.242-.5a1.443 1.443 0 0 1 0-2.2l12.963-11.499-12.963-11.5a1.443 1.443 0 0 1 0-2.198c.678-.602 1.805-.602 2.48 0l14.206 12.602a1.443 1.443 0 0 1 0 2.199l-14.207 12.697c-.335.3-.788.398-1.237.398zm-23.897 0c-.3 0-.602-.102-.8-.2-.7-.5-1-1.398-.5-2.198l15.799-25.301c.5-.7 1.399-1 2.2-.5.8.5 1 1.398.5 2.199l-15.903 25.3c-.296.4-.796.7-1.296.7h-.001z" fill="#d32b53" fill-rule="evenodd"/></svg>