<?xml version="1.0" encoding="utf-8"?>
<!-- Generator: Adobe Illustrator 18.0.0, SVG Export Plug-In . SVG Version: 6.00 Build 0)  -->
<!DOCTYPE svg PUBLIC "-//W3C//DTD SVG 1.1//EN" "http://www.w3.org/Graphics/SVG/1.1/DTD/svg11.dtd">
<svg version="1.1" id="Layer_1" xmlns="http://www.w3.org/2000/svg" xmlns:xlink="http://www.w3.org/1999/xlink" x="0px" y="0px"
	 viewBox="0 0 50 36" style="enable-background:new 0 0 50 36;" xml:space="preserve">
<style type="text/css">
	.st0{fill:#FFFFFF;}
</style>
<path class="st0" d="M44.4,0H5.8C2.5,0,0,2.1,0,4.6v26.8C0,33.9,2.6,36,5.8,36h38.6c3.2,0,5.6-2.1,5.6-4.6V4.6C50,2.1,47.5,0,44.4,0
	z M16.1,3.5c0.7,0,1.3,0.5,1.3,1s-0.6,1-1.3,1s-1.3-0.4-1.3-0.9S15.4,3.5,16.1,3.5z M11,3.5c0.7,0,1.3,0.5,1.3,1s-0.6,1-1.3,1
	c-0.7,0-1.3-0.4-1.3-0.9C9.7,4.1,10.3,3.5,11,3.5z M6.4,3.5C7,3.5,7.6,4,7.6,4.6c0,0.6-0.6,1-1.3,1C5.6,5.6,5,5.1,5,4.6
	S5.7,3.5,6.4,3.5z M44.3,34H5.8C3.6,34,2,32.7,2,31V8.6h45.9L48,31C48,32.7,46.2,34,44.3,34z"/>
</svg>
