<?xml version="1.0" encoding="utf-8"?>
<!-- Generator: Adobe Illustrator 18.0.0, SVG Export Plug-In . SVG Version: 6.00 Build 0)  -->
<!DOCTYPE svg PUBLIC "-//W3C//DTD SVG 1.1//EN" "http://www.w3.org/Graphics/SVG/1.1/DTD/svg11.dtd">
<svg version="1.1" id="Layer_1" xmlns="http://www.w3.org/2000/svg" xmlns:xlink="http://www.w3.org/1999/xlink" x="0px" y="0px"
	 viewBox="0 0 49 32" enable-background="new 0 0 49 32" xml:space="preserve">
<path fill="#FFFFFF" d="M7.5,14.6C8.3,14.7,9,15,10,14.9c0,0-2.9,1.6-2.9,4.4h4.2c0,0-0.3-3.9,2.1-6.3l-0.9-0.7c0,0-0.9,0.8-2.8,0.1
	c0,0-1.5-0.5-3.1,0.3l0-0.4H5.2v3.4h1.2C6.4,15.7,6.7,14.5,7.5,14.6z M34.6,14.6c0.8,0.1,1.5,0.4,2.5,0.3c0,0-2.9,1.6-2.9,4.4h4.2
	c0,0-0.3-3.9,2.1-6.3l-0.9-0.7c0,0-0.9,0.8-2.8,0.1c0,0-1.5-0.5-3.1,0.3l0-0.4h-1.3v3.4h1.2C33.5,15.7,33.9,14.5,34.6,14.6z
	 M47.8,14.8L47.8,14.8l0-9.8c0.6-0.3,0.7-0.7,0.7-1.2c0-0.8-0.7-1.4-1.5-1.4c-0.8,0-1.5,0.6-1.5,1.4c0,0.5,0.1,1,0.6,1.2v9.7H45V5.9
	l-7.8,0V3.2H26.6C26.4,1.4,24.9,0,23.1,0c-1.9,0-3.4,1.4-3.5,3.2H9.4v2.7H0.6v21.8H0V30h16.3c1.3,1.2,3.8,2,6.6,2s5.3-0.8,6.6-2h16
	v-2.2H45V19h1.7c1.3,0,2.3-1,2.3-2.3C49,15.9,48.3,15.1,47.8,14.8z M15.6,22.9L15.6,22.9H3.3V8.7h12.2V22.9z M22.9,29.8
	c-3.1,0-5.6-0.6-5.6-1.3c0-0.7,2.5-1.3,5.6-1.3c3.1,0,5.6,0.6,5.6,1.3C28.5,29.2,26,29.8,22.9,29.8z M28.9,22.9H16.7V8.7h12.2V22.9z
	 M42.2,22.9H30V8.7h12.2V22.9z M21.3,14.6c0.8,0.1,1.5,0.4,2.5,0.3c0,0-2.9,1.6-2.9,4.4h4.2c0,0-0.3-3.9,2.1-6.3l-0.9-0.7
	c0,0-0.9,0.8-2.8,0.1c0,0-1.5-0.5-3.1,0.3v-0.4H19v3.4h1.2C20.2,15.7,20.5,14.5,21.3,14.6z"/>
</svg>
