<svg xmlns="http://www.w3.org/2000/svg" width="48" height="85" viewBox="0 0 48 85">
    <g fill="#D32B53" fill-rule="evenodd">
        <path d="M27.904 14.415c-1.42-.144-3.113-.705-4.025-1.007a56.848 56.848 0 0 0-.544-.178c-1.6-.52-3.615-1.177-5.065-2.23-1.777 1.47-2.668 3.815-2.1 6.163.814 3.364 4.31 5.455 7.805 4.673 3.456-.774 5.621-4.071 4.88-7.398-.288.02-.601.015-.951-.023zM13.528 41.31c.572-1.642 1.232-2.942 1.88-3.964v4.836a9.958 9.958 0 0 1 2.023 1.535c1.22 1.211 2.046 2.726 2.177 4.463.275 3.648-1.087 5.6-2.918 6.93-.41.297-.84.564-1.285.81v3.927c.505 1.63.918 3.573 0 5.375v15.876c0 2.155 1.888 3.902 4.217 3.902 2.328 0 4.216-1.747 4.216-3.902V55.455h1.626v25.643c0 2.155 1.888 3.902 4.217 3.902 2.328 0 4.216-1.747 4.216-3.902V47.044c0-.186-.018-.369-.046-.548v-7.383A28.635 28.635 0 0 0 43 44.97l-.303-5.786a23.545 23.545 0 0 1-5.554-4.193 22.593 22.593 0 0 1-2.561-3.119 16.307 16.307 0 0 1-.59-.933c-.06-.105-.105-.183-.13-.232-.01-.02-.018-.033-.021-.043a2.504 2.504 0 0 0-.558-.728 2.715 2.715 0 0 0-2.07-.937l-13.168.003c-.222 0-.434.03-.639.075a2.9 2.9 0 0 0-1.157.268c-.353.16-2.865 1.44-5.24 4.976C9.9 35.972 8.827 38.1 8 40.804a9.588 9.588 0 0 1 1.771-.163c1.25-.003 2.54.232 3.758.67z"/>
        <path d="M26.428 10.623c1.294-3.175-2.236-6.09-1.131-3.81.521 1.073.356 2.152-.015 3.053-2.467-1.787-9.742-2.2-8.022 1.457.31.663.796 1.227 1.374 1.721 1.52 1.304 3.713 2.099 5.248 2.726 1.24.508 3.206 1.286 4.573 1.227.964-.039 1.633-.494 1.536-1.756-.242-3.118-2.502-4.254-3.563-4.618zM40.24 21h5.688C51.904 6.184 43.602.081 38.086 0c.689 1.31 5.776 3.596 1.638 10.706C35.564 17.857 40.24 21 40.24 21zM46.751 21h-5.499L40 32h8zM45.547 82.701L48 32h-8l.262 5.424.29 6.004 1.9 39.273c-.39.235-.62.572-.62.969 0 .248.09.475.255.665.352.41 1.042.665 1.915.665.87 0 1.562-.255 1.91-.665a1.02 1.02 0 0 0 .256-.665c0-.397-.23-.734-.62-.969zM12.456 65.476c.674-.802.99-1.66 1.094-2.53a6.483 6.483 0 0 0 0-1.464c-.316-2.94-2.218-5.756-.479-6.787a11.859 11.859 0 0 0 1.192-.798c1.905-1.448 2.931-3.331 2.706-6.706-.11-1.66-.866-3.155-1.996-4.344a8.742 8.742 0 0 0-1.423-1.206 9.486 9.486 0 0 0-1.912-1.007C10.017 40 8.22 39.809 6.53 40.21 3.214 40.99.322 44.042.035 50.502c-.697 15.631 9.102 18.922 12.42 14.974zM8.428 43.04c.153-.913 1.21-1.324 2.364-.916.15.054.29.114.426.188.919.492 1.515 1.408 1.378 2.203-.134.798-.96 1.213-1.935 1.03a3.129 3.129 0 0 1-.43-.114c-1.152-.407-1.96-1.478-1.804-2.391zm-4.85 1.246c.763-.684 1.635-.761 2.212-.29.169.142.316.327.423.563.45.997.078 2.469-.827 3.368-.036.037-.075.074-.114.111-.987.882-2.166.761-2.631-.276-.47-1.034-.05-2.59.938-3.476zm.111 12.657c-.804.155-1.566-.855-1.7-2.256-.133-1.401.41-2.661 1.212-2.816.804-.155 1.563.856 1.7 2.257.136 1.4-.407 2.66-1.212 2.815zm4.67 6.52c-.303.86-1.37.96-2.39.23-1.016-.731-1.596-2.021-1.293-2.88.303-.859 1.371-.96 2.39-.229 1.016.73 1.596 2.02 1.293 2.88z"/>
    </g>
</svg>
