<svg xmlns="http://www.w3.org/2000/svg" width="74" height="51" viewBox="0 0 74 51">
    <path fill="#D32B53" fill-rule="evenodd" d="M52.578 19.957h-2.44c-.24 0-.437.241-.437.537v2.25c0 .297.196.539.437.539h2.44c.241 0 .437-.242.437-.538v-2.25c0-.297-.196-.538-.437-.538zm-29.84.545h-3.402v-3.417a.454.454 0 0 0-.453-.455h-2.42a.456.456 0 0 0-.456.455v3.417h-3.402a.456.456 0 0 0-.456.455v2.43c0 .253.204.455.456.455h3.402v3.418c0 .252.205.457.456.457h2.42a.456.456 0 0 0 .453-.457v-3.418h3.402a.456.456 0 0 0 .456-.454v-2.43a.458.458 0 0 0-.456-.456zm38.676-.545h-2.44c-.24 0-.437.241-.437.537v2.25c0 .297.196.539.437.539h2.44c.24 0 .437-.242.437-.538v-2.25c.003-.297-.193-.538-.437-.538zm-4.517-4.435h-2.242c-.298 0-.536.196-.536.438v2.447c0 .241.241.44.536.44h2.242c.298 0 .536-.196.536-.44V15.96c0-.242-.238-.438-.536-.438zm0 8.87h-2.242c-.298 0-.536.196-.536.438v2.449c0 .242.241.438.536.438h2.242c.298 0 .536-.196.536-.438v-2.45c0-.241-.238-.438-.536-.438zM73.86 37.594c-.35-3.315-1.813-18.023-2.385-23.243-.772-7.068-6.645-12.37-13.694-12.376-3.293-.003-6.232 1.055-8.803 3.131-.244.2-.592.46-.855.425-2.187-.31-4.366-.681-6.63-1.05V1.16S41.461 0 40.19 0h-6.38c-1.27 0-1.302 1.159-1.302 1.159v3.323c-2.267.366-4.446.74-6.63 1.05-.263.035-.608-.227-.856-.425-2.57-2.079-5.51-3.134-8.802-3.131-7.052.006-12.921 5.308-13.694 12.376C1.954 19.572.489 34.278.14 37.595c-.516 4.898.127 11.5 6.385 13.002 5.817 1.394 10.896-.926 14.095-5.438 1.951-2.751 4.086-5.37 6.17-8.027.198-.254.62-.472.938-.475h18.54c.318.003.74.219.937.475 2.084 2.654 4.222 5.276 6.17 8.027 3.199 4.512 8.281 6.832 14.095 5.438 6.262-1.501 6.904-8.104 6.388-13.002h.001zm-55.638-6.552c-5.185 0-9.386-4.219-9.386-9.423 0-5.205 4.204-9.424 9.386-9.424 5.186 0 9.39 4.22 9.39 9.424s-4.204 9.423-9.39 9.423zm37.553 0c-5.186 0-9.387-4.219-9.387-9.423 0-5.205 4.204-9.424 9.387-9.424 5.185 0 9.39 4.22 9.39 9.424s-4.205 9.423-9.39 9.423z"/>
</svg>
