<?xml version="1.0" encoding="utf-8"?>
<!-- Generator: Adobe Illustrator 18.0.0, SVG Export Plug-In . SVG Version: 6.00 Build 0)  -->
<!DOCTYPE svg PUBLIC "-//W3C//DTD SVG 1.1//EN" "http://www.w3.org/Graphics/SVG/1.1/DTD/svg11.dtd">
<svg version="1.1" id="Layer_1" xmlns="http://www.w3.org/2000/svg" xmlns:xlink="http://www.w3.org/1999/xlink" x="0px" y="0px"
	 viewBox="0 0 39 26" enable-background="new 0 0 39 26" xml:space="preserve">
<path fill="#FFFFFF" d="M36.2,0L36.2,0H2.8C1.3,0,0,1.6,0,3.6v18.8c0,2,1.3,3.6,2.8,3.6h13c0.3,0,0.7-0.2,0.8-0.6l2-5
	c0.2-0.4,0.5-0.7,0.8-0.7s0.7,0.3,0.8,0.7l1.9,5c0.2,0.4,0.5,0.7,0.9,0.7h13.2c1.6,0,2.8-1.6,2.8-3.6V3.6C39,1.6,37.7,0,36.2,0z
	 M10.7,17.1C10.7,17.1,10.7,17.1,10.7,17.1L10.7,17.1C10.7,17.1,10.7,17.1,10.7,17.1c-1.4,0-2.6-0.8-3.2-2.1
	c-0.5-1.3-0.2-2.8,0.7-3.8c1-1,2.4-1.3,3.7-0.8c1.3,0.5,2.1,1.8,2.1,3.2C14.1,15.5,12.6,17.1,10.7,17.1z M28.4,17.1
	c-1.4,0-2.6-0.8-3.2-2.1c-0.5-1.3-0.2-2.8,0.7-3.8c1-1,2.4-1.3,3.7-0.8c1.3,0.5,2.1,1.8,2.1,3.2C31.8,15.5,30.2,17.1,28.4,17.1z"/>
</svg>
