<?xml version="1.0" encoding="utf-8"?>
<!-- Generator: Adobe Illustrator 18.0.0, SVG Export Plug-In . SVG Version: 6.00 Build 0)  -->
<!DOCTYPE svg PUBLIC "-//W3C//DTD SVG 1.1//EN" "http://www.w3.org/Graphics/SVG/1.1/DTD/svg11.dtd">
<svg version="1.1" id="Layer_1" xmlns="http://www.w3.org/2000/svg" xmlns:xlink="http://www.w3.org/1999/xlink" x="0px" y="0px"
	 viewBox="0 0 21 35" enable-background="new 0 0 21 35" xml:space="preserve">
<path fill="#FFFFFF" d="M20.1,0.8C19.5,0.3,18.6,0,17.8,0H3.2C2.4,0,1.5,0.3,0.9,0.8C0.3,1.4,0,2.1,0,2.9v14.6l0,0v14.6
	c0,0.8,0.3,1.5,0.9,2C1.5,34.7,2.3,35,3.2,35h14.6c0.8,0,1.7-0.3,2.3-0.8c0.6-0.5,0.9-1.3,0.9-2.1V2.9C21,2.1,20.7,1.4,20.1,0.8z
	 M9.2,3.2h1.3c0.4,0,0.9,0,1.3,0c0.2,0,0.3,0.2,0.5,0.4c-0.2,0.2-0.3,0.5-0.5,0.5c-0.9,0-1.8,0-2.7,0c-0.2,0-0.4-0.2-0.4-0.5
	C8.7,3.3,8.9,3.2,9.2,3.2z M11.8,31.8C11.8,31.8,11.8,31.8,11.8,31.8L11.8,31.8c0,0.4-0.2,0.7-0.4,1c-0.3,0.3-0.7,0.4-1,0.4
	c-0.4,0-0.8-0.1-1.1-0.4c-0.3-0.3-0.5-0.6-0.5-1c0-0.4,0.2-0.7,0.5-1c0.3-0.3,0.7-0.4,1.1-0.4c0.4,0,0.8,0.1,1.1,0.4
	C11.6,31.1,11.8,31.4,11.8,31.8L11.8,31.8L11.8,31.8z M19,29.5H2.1v0L2,6H19V29.5z"/>
</svg>
