<svg width="30" height="30" viewBox="0 0 30 30" fill="none" xmlns="http://www.w3.org/2000/svg">
<path opacity="0.504781" fill-rule="evenodd" clip-rule="evenodd" d="M15 30C23.2843 30 30 23.2843 30 15C30 6.71573 23.2843 0 15 0C6.71573 0 0 6.71573 0 15C0 23.2843 6.71573 30 15 30ZM23.9529 14.5439H21.4417V11.9105C21.4417 11.7096 21.2863 11.5462 21.0951 11.5462H20.38C20.1875 11.5462 20.032 11.7096 20.032 11.9105V14.5439H17.5209C17.3297 14.5439 17.1736 14.7076 17.1736 14.9089V15.659C17.1736 15.8602 17.3297 16.0233 17.5209 16.0233H20.032V18.6581C20.032 18.8593 20.1875 19.0224 20.38 19.0224H21.0951C21.2863 19.0224 21.4417 18.8593 21.4417 18.6581V16.0229H23.9529C24.1441 16.0229 24.3002 15.8599 24.3002 15.6586V14.9086C24.3002 14.7073 24.1441 14.5439 23.9529 14.5439ZM15.5142 16.8533C14.986 16.4609 14.506 15.8855 14.4976 15.7088C14.4976 15.3869 14.525 15.2329 15.2133 14.6705C16.1032 13.9397 16.5932 12.9789 16.5932 11.9638C16.5932 11.0434 16.3251 10.2256 15.8688 9.65129H16.2229C16.2961 9.65129 16.3679 9.62744 16.4264 9.58256L17.4142 8.83182C17.5369 8.7396 17.5884 8.57514 17.5416 8.42471C17.4945 8.27464 17.3621 8.17225 17.2113 8.17225H12.7934C12.31 8.17225 11.819 8.26166 11.3369 8.43558C9.72701 9.01801 8.60114 10.4571 8.60114 11.9344C8.60114 14.0274 10.1469 15.6137 12.2131 15.6635C12.1726 15.8294 12.1523 15.9928 12.1523 16.153C12.1523 16.4756 12.2301 16.781 12.3906 17.0763C12.3719 17.0763 12.3538 17.0763 12.3338 17.0763C10.3642 17.0763 8.58643 18.09 7.91151 19.5985C7.73567 19.9909 7.64608 20.3875 7.64608 20.7791C7.64608 21.1599 7.73935 21.5264 7.9222 21.8707C8.34641 22.6667 9.25734 23.2842 10.4885 23.6103C11.124 23.7786 11.8069 23.8645 12.516 23.8645C13.1531 23.8645 13.7605 23.7782 14.3221 23.6078C16.0731 23.0745 17.2053 21.7224 17.2053 20.1616C17.205 18.664 16.746 17.7674 15.5142 16.8533ZM9.9346 20.2816C9.9346 19.1921 11.254 18.2366 12.758 18.2366H12.7984C13.1257 18.2408 13.4449 18.2913 13.7458 18.3881C13.8491 18.4628 13.9487 18.5339 14.0443 18.6023C14.741 19.1002 15.2013 19.4288 15.3293 19.9562C15.3594 20.0891 15.3744 20.222 15.3744 20.3506C15.3744 21.7073 14.41 22.3949 12.5069 22.3949C11.0645 22.3949 9.9346 21.4671 9.9346 20.2816ZM11.3032 9.98756C11.5382 9.70599 11.846 9.55731 12.1917 9.55731L12.2308 9.55801C13.2073 9.58817 14.1416 10.7295 14.3134 12.1023C14.41 12.8709 14.2469 13.5936 13.8785 14.0341C13.6428 14.3163 13.3393 14.465 12.9796 14.465C12.9796 14.465 12.9796 14.465 12.9789 14.465H12.9632C12.0068 14.4341 11.0525 13.2493 10.8816 11.8783C10.7857 11.1117 10.9395 10.4227 11.3032 9.98756Z" fill="#9B9DA0"/>
</svg>
