<svg width="84" height="88" viewBox="0 0 84 88" fill="none" xmlns="http://www.w3.org/2000/svg">
<path fill-rule="evenodd" clip-rule="evenodd" d="M83.1152 20.177L69.7502 6.17899C69.5612 5.98099 69.3002 5.86999 69.0272 5.86999H44.7802C44.5142 5.86999 44.2582 5.97599 44.0702 6.16499L40.8162 9.44199C39.8292 8.86699 38.8222 8.29999 37.7892 7.75099C26.0362 1.50199 15.3932 -1.08101 13.4432 2.58499C11.5262 6.19099 19.3242 13.387 30.7632 19.568L2.67124 47.866C-0.0547636 50.612 -0.0377634 55.046 2.70924 57.767L30.6492 85.448C33.3932 88.167 37.8462 88.186 40.6162 85.486L82.7082 44.47C82.8972 44.286 83.0062 44.034 83.0102 43.77L83.3912 20.884C83.3962 20.621 83.2972 20.367 83.1152 20.177ZM15.2092 3.52399C16.3032 1.46699 26.2492 3.87999 36.8502 9.51699C37.7052 9.97099 38.5312 10.443 39.3542 10.916L32.2332 18.089C21.6562 12.457 14.1172 5.57899 15.2092 3.52399ZM39.2202 84.053C37.2302 85.992 34.0252 85.978 32.0562 84.027L4.11624 56.346C2.15424 54.403 2.14224 51.236 4.09024 49.275L32.6182 20.539C40.9732 24.822 48.6162 27.182 52.7592 26.654C52.8212 31.02 56.4042 34.539 60.8182 34.539C65.2692 34.539 68.8812 30.96 68.8812 26.541C68.8812 22.121 65.2692 18.542 60.8182 18.542C57.0072 18.542 53.8192 21.168 52.9782 24.695C50.2662 25.384 42.5542 23.288 34.0972 19.049L45.1972 7.86799H68.5992L81.3852 21.261L81.0172 43.325L39.2202 84.053ZM55.6852 25.046C56.0012 24.452 56.0522 23.771 55.8992 23.043C57.0002 21.532 58.7902 20.544 60.8182 20.544C64.1692 20.544 66.8812 23.232 66.8812 26.543C66.8812 29.853 64.1682 32.541 60.8182 32.541C57.4672 32.541 54.7532 29.853 54.7532 26.543C54.7532 26.351 54.7642 26.162 54.7822 25.975C55.1652 25.725 55.4822 25.427 55.6852 25.046ZM41.1492 53.941C41.1492 47.3617 36.9605 41.941 31.6492 41.941C26.338 41.941 22.1492 47.3617 22.1492 53.941C22.1492 60.5203 26.338 65.941 31.6492 65.941C36.9605 65.941 41.1492 60.5203 41.1492 53.941ZM31.6492 43.941C27.5717 43.941 24.1492 48.37 24.1492 53.941C24.1492 59.512 27.5717 63.941 31.6492 63.941C35.7268 63.941 39.1492 59.512 39.1492 53.941C39.1492 48.37 35.7268 43.941 31.6492 43.941ZM53.1492 53.941C54.503 53.941 55.7665 53.4031 56.7008 52.4605L58.1213 53.8683C56.8528 55.1482 55.0936 55.941 53.1492 55.941C50.3568 55.941 47.9463 54.3059 46.8229 51.941H45.6492H44.6492V49.941H45.6492H46.2201C46.1734 49.6144 46.1492 49.2805 46.1492 48.941H45.6492H44.6492V46.941H45.6492H46.4391C47.2997 44.0495 49.9782 41.941 53.1492 41.941C54.9774 41.941 56.6418 42.6418 57.8886 43.7894L56.5341 45.2609C55.6164 44.4162 54.4226 43.941 53.1492 43.941C51.0989 43.941 49.3368 45.1751 48.5653 46.941H52.1353H53.1353V48.941H52.1353H48.1492C48.1492 49.2835 48.1837 49.6179 48.2493 49.941H52.1353H53.1353V51.941H52.1353H49.1489C50.0611 53.1554 51.5134 53.941 53.1492 53.941Z" fill="white"/>
</svg>
